<svg width="52" height="52" xmlns="http://www.w3.org/2000/svg"><g fill="none" fill-rule="evenodd"><path d="M52 0v52H0V0h52zM26 1C16.887 1 10.626 2.724 6.66 6.69 2.615 10.735 1 17.062 1 26c0 9.201 1.58 15.498 5.541 19.459C10.502 49.42 16.8 51 26 51s15.498-1.58 19.459-5.541C49.42 41.498 51 35.2 51 26s-1.58-15.498-5.541-19.459C41.498 2.58 35.2 1 26 1z" fill="#FFF"/><path d="M26 1.5c9.017 0 15.216 1.505 19.105 5.395C48.995 10.784 50.5 16.983 50.5 26c0 9.017-1.505 15.216-5.395 19.105C41.216 48.995 35.017 50.5 26 50.5c-9.017 0-15.216-1.505-19.105-5.395C3.005 41.216 1.5 35.017 1.5 26c0-8.76 1.544-14.986 5.513-18.956C10.907 3.15 17.07 1.5 26 1.5z" stroke-opacity=".1" stroke="#000"/></g></svg>